<svg width="104" height="24" viewBox="0 0 104 24" fill="none" xmlns="http://www.w3.org/2000/svg">
<path d="M56.9751 6.80089H60.4604L54.0821 23.7746H51.5662L40.9369 0.0679626H44.4222L52.826 18.9276L56.9751 6.80089Z" fill="#339CFF"/>
<path d="M67.0158 23.1484C65.9749 22.5762 65.1378 21.6943 64.6207 20.625C64.0407 19.3739 63.7592 18.0051 63.7984 16.6267V13.8657C63.7592 12.5031 64.0409 11.1502 64.6207 9.91643C65.1381 8.853 65.9757 7.97848 67.0158 7.41569C68.1932 6.85148 69.4822 6.55853 70.7878 6.55853C72.0934 6.55853 73.3823 6.85148 74.5597 7.41569C75.5998 7.97848 76.4375 8.853 76.9549 9.91643C77.536 11.1499 77.8189 12.5028 77.7809 13.8657V16.6645C77.8196 18.0323 77.5367 19.3901 76.9549 20.6287C76.4338 21.6914 75.5973 22.5676 74.5597 23.1372C73.3834 23.7051 72.094 24 70.7878 24C69.4815 24 68.1922 23.7051 67.0158 23.1372V23.1484ZM73.4998 19.7537C74.1372 19.0219 74.4541 17.9997 74.4541 16.6796V13.8694C74.4541 12.5492 74.136 11.5296 73.4998 10.8104C72.769 10.1177 71.8004 9.7317 70.7934 9.7317C69.7865 9.7317 68.8179 10.1177 68.0871 10.8104C67.4484 11.5296 67.1303 12.5492 67.1328 13.8694V16.6645C67.1328 17.9846 67.4496 19.0068 68.0871 19.7386C68.8135 20.4399 69.7837 20.8318 70.7934 20.8318C71.8031 20.8318 72.7734 20.4399 73.4998 19.7386V19.7537Z" fill="#339CFF"/>
<path d="M87.788 19.3879C87.7664 19.7283 87.8608 20.0659 88.0558 20.3458C88.1471 20.4562 88.2627 20.5441 88.3936 20.6023C88.5245 20.6606 88.667 20.6876 88.8102 20.6815H90.3793V23.8538H88.4179C87.1543 23.8538 86.1547 23.4765 85.4833 22.6769C84.8119 21.8772 84.446 20.791 84.446 19.3577V0H87.7804L87.788 19.3879Z" fill="#339CFF"/>
<path d="M100.473 19.3879C100.451 19.7289 100.546 20.0671 100.745 20.3458C100.835 20.4571 100.95 20.5455 101.082 20.6038C101.213 20.6621 101.356 20.6888 101.499 20.6815H103.068V23.8538H101.107C100.561 23.8858 100.015 23.7968 99.5077 23.5933C99.0005 23.3899 98.5444 23.077 98.172 22.6769C97.4818 21.8923 97.1348 20.791 97.1348 19.3577V0H100.469L100.473 19.3879Z" fill="#339CFF"/>
<path d="M36.0408 5.34866L39.0584 6.89519L26.7845 19.9536L24.4497 18.9805L25.1098 1.64838H28.3348L27.5163 14.9595L36.0408 5.34866Z" fill="#339CFF"/>
<path d="M18.7879 1.64838H22.0243L22.5749 19.2746L20.2401 20.2365L7.8418 6.90642L11.0743 5.5787L19.5536 15.2463L18.7879 1.64838Z" fill="#339CFF"/>
<path d="M4.56026 12.2512L5.90684 9.02261L19.1652 21.4963L18.1882 23.8274L0 23.8009L1.34658 20.576L14.1711 20.7834L4.56026 12.2512Z" fill="#339CFF"/>
<path d="M32.714 20.7344L45.5385 20.5948L46.8662 23.8311L28.6705 23.7556L27.7124 21.4171L41.0386 9.01874L42.3663 12.2551L32.714 20.7344Z" fill="#339CFF"/>
</svg>
